<svg version="1.1" xmlns="http://www.w3.org/2000/svg" xmlns:xlink="http://www.w3.org/1999/xlink" width="687.50056" height="517.55952" viewBox="0,0,687.50056,517.55952"><g transform="translate(102.69382,81.77268)"><g data-paper-data="{&quot;isPaintingLayer&quot;:true}" fill="#ffde2c" fill-rule="nonzero" stroke="none" stroke-width="0.5" stroke-linecap="butt" stroke-linejoin="miter" stroke-miterlimit="10" stroke-dasharray="" stroke-dashoffset="0" style="mix-blend-mode: normal"><path d="M-74.69607,368.85995c4.16514,4.16514 9.38788,7.33746 13.55479,11.51676c0.94793,0.95075 1.42356,2.28653 2.28133,3.31936c1.47058,1.7707 3.42316,3.10114 4.89267,4.87272c0.93912,1.13217 1.56587,2.51715 2.59057,3.57249c1.93741,1.99535 6.46047,4.80608 8.81626,6.12813c1.62621,0.91262 9.47701,3.32056 10.35655,3.68731c10.88175,4.53745 20.5054,9.90841 28.94654,18.30064c0,0 1.45484,1.45484 1.80873,3.5126c2.82196,0.12196 5.66495,0.16369 8.21553,-0.225c1.35868,-0.20706 2.63537,-0.83672 4,-1c3.25032,-0.38892 6.77181,0.4779 10,0c3.88334,-0.57489 7.23439,-1.9942 11.23822,-2.02451c5.09032,-0.84839 9.90904,-0.33678 14.90366,-0.99124c1.68527,-0.22083 3.31239,-0.79783 5,-1c5.22156,-0.62553 10.63533,0.52929 15.85813,0.01575c2.94172,-0.28925 5.74339,-1.41675 8.65141,-1.94665c5.09606,-0.9286 10.28501,-1.33685 15.34859,-2.05335c4.77241,-0.6753 9.34021,-2.59623 14.14187,-3.01575c4.42459,-0.38658 8.8915,-0.26074 13.32433,0.01575c3.02001,0.18837 5.85445,1.61833 8.85813,1.98425c2.13606,0.26022 4.32844,0.3678 6.36987,1.04828c7.03913,-0.17946 14.77872,-0.8693 21.77201,-0.03252c1.36463,0.16328 2.64132,0.79294 4,1c2.5781,0.39289 5.65634,-0.04495 8.2669,-0.04495c3.94311,0 8.36954,0.55716 12.2669,0.04495c10.62258,-1.39606 20.84024,-4.01494 31.7331,-4.04495c9.32489,0 19.16043,1.01974 28.40877,0.0292c6.07827,-0.65101 11.65334,-4.16191 17.63013,-4.95172c0.68463,-0.09047 7.1323,-0.07748 8.96109,-0.07748c7.2831,0 14.77854,-0.08455 21.96109,1.07748c2.00156,0.32382 3.97241,1 6,1c4.51081,1.5036 9.2916,0.92252 14.03891,0.92252c4.94861,0 9.72322,0.48452 14.59123,1.0292c5.9842,0.66957 12.80854,1.27036 18.49045,3.34349c3.22551,1.17687 6.96928,3.97864 10.29684,4.78782c1.16069,0.28225 2.39949,-0.24784 3.58258,-0.08303c1.04401,0.14543 1.958,0.84082 3,1c4.37205,0.66789 9.5908,-0.07748 14.03891,-0.07748c5.1136,0 10.88259,-0.74228 15.96109,0.07748c3.56546,0.57552 3.39981,1.56174 6.77201,1.96748c3.92543,0.47231 8.30238,-0.04495 12.2669,-0.04495c4.68609,0 9.76188,0.60395 14.40877,0.0292c2.60541,-0.32225 5.03755,-1.53877 7.63013,-1.95172c2.37936,-0.37899 4.83918,0.28143 7.22799,-0.03252c4.12306,-0.54187 7.50227,-1.04495 11.7331,-1.04495c2.11267,0.0419 4.17285,-0.67208 6.2669,-0.95505c6.54336,-0.88419 13.49627,0.99114 20,0c4.71684,-0.71882 8.9241,-1.04495 13.7331,-1.04495c3.64309,0 7.28618,0 10.92928,0c-0.22845,-4.22483 4.17336,-5.6921 4.17336,-5.6921c12.85905,-4.20769 19.86803,-16.55142 28.4266,-26.30943c2.07996,-2.37146 4.85708,-4.33536 6.83072,-6.8024c0.87289,-1.09112 1.35198,-2.51159 2.39741,-3.43871c1.94452,-1.72446 4.35949,-2.838 6.43871,-4.39741c2.96005,-2.22004 5.15848,-5.61803 8,-8c2.57085,-2.15508 4.73611,-3.77463 7.16388,-6.16388c0.79914,-1.14624 1.40065,-2.45945 2.39741,-3.43871c0.6264,-0.6154 1.83387,-0.49476 2.33815,-1.21365c1.09458,-1.56041 0.67611,-4.14424 2.21202,-5.27294c0.22189,-0.16306 0.45557,-0.29903 0.6989,-0.41284c-0.00416,-0.2878 -0.00643,-0.57385 -0.00643,-0.85793c0,-10.33333 0,-20.66667 0,-31c0,-3.12906 -0.37301,-6.64002 0.04495,-9.7331c0.18404,-1.36199 0.8591,-2.63287 1,-4c0.46903,-4.55108 -0.04495,-9.68183 -0.04495,-14.2669c0,-8.66667 0,-17.33333 0,-26c0,-8.63258 1.13749,-17.89676 -0.95505,-26.2669c0.0413,-6.06094 -1.18916,-11.99941 -2,-18c-0.94108,-6.9644 -0.04495,-14.71593 -0.04495,-21.7331c0,-14.66667 0,-29.33333 0,-44c0,-10.66667 0,-21.33333 0,-32c0,-4.85798 -0.49947,-10.1628 0.07748,-14.96109c0.12584,-1.04655 0.84869,-1.95682 1,-3c0.5027,-3.46579 0.57927,-6.98057 0.93762,-10.46424c0.71799,-6.97984 -0.01509,-14.54381 -0.01509,-21.57467c0,-14.66667 0,-29.33333 0,-44c0,-3.66667 0,-7.33333 0,-11c0,-2.34644 0.50004,-4.73083 0.07748,-7.03891c-0.18983,-1.03686 -0.8276,-1.9601 -1,-3c-0.47393,-2.85864 -0.58031,-5.74146 -0.99512,-8.57993c-2.42255,-1.20449 -2.94112,-3.83963 -3.05212,-4.91258c-0.55178,-0.17106 -1.09875,-0.35293 -1.63908,-0.54974l-0.25861,0.58942c-0.14709,-0.28484 -0.29418,-0.56969 -0.44126,-0.85453c-0.99802,-0.39332 -1.97011,-0.84497 -2.90436,-1.38173c-2.74315,-1.57605 -4.07216,-4.8444 -6.18926,-7.1953c-1.02691,-1.14032 -2.25881,-2.09098 -3.23772,-3.27276c-1.40897,-1.70098 -2.01021,-4.03065 -3.60259,-5.56129c-0.86647,-0.83287 -2.15341,-1.14693 -3,-2c-1.69635,-1.70932 -2.69061,-4.08604 -4.56129,-5.60259c-1.04292,-0.84548 -2.36861,-1.3334 -3.31936,-2.28133c-1.3829,-1.3788 -2.59848,-2.90638 -3.82462,-4.43079c-0.21215,-0.1709 -0.42443,-0.34164 -0.63682,-0.51224c-0.01711,-0.00862 -0.03424,-0.01722 -0.05137,-0.0258c-3.48507,-1.74512 -7.96414,-2.36563 -11.32008,-4.16869c-0.87754,-0.47148 -5.5476,-5.23971 -6.28645,-5.97856c-0.63725,-0.71291 -1.2745,-1.42582 -1.91175,-2.13874l-4.98346,-6.1039c-10.95405,0 -21.9081,0 -32.86215,0c-23.33333,0 -46.66667,0 -70,0c-8.33333,0 -16.66667,0 -25,0c-4.16075,0 -8.85464,0.55814 -12.96109,-0.07748c-1.04169,-0.16124 -1.96314,-0.81017 -3,-1c-1.65237,-0.30252 -3.35907,0.07748 -5.03891,0.07748c-6.46372,0 -13.80169,0.97566 -19.96109,-1.07748c-14.30887,0.54371 -28.71913,0.07748 -43.03891,0.07748c-7.35954,0 -15.11682,-0.83248 -22.2669,0.95505c-3.0429,0.03664 -6.79775,-0.57705 -9.77201,-0.03252c-1.03686,0.18983 -1.95831,0.83876 -3,1c-4.10646,0.63562 -8.80035,0.07748 -12.96109,0.07748c-7.99829,0 -16.00227,0.08901 -24,0c-2.34785,-0.02613 -4.64002,-0.7229 -6.96109,-1.07748c-2.77843,-0.42444 -6.212,0.07748 -9.03891,0.07748c-8.7057,0 -18.10448,0.9875 -26.7331,-0.04495c-1.36463,-0.16328 -2.64132,-0.79294 -4,-1c-2.3067,-0.35153 -4.68319,0.27722 -7,0c-1.27687,-0.15278 -2.47675,-0.71389 -3.73884,-0.95505c-0.1761,0 -0.35213,0 -0.52806,0c-1.52219,0 -3.04164,-0.01265 -4.55851,-0.03938c-1.40725,0.09659 -2.81368,0.17832 -4.17459,-0.00558c-0.3199,-0.04323 -0.63848,-0.09038 -0.95595,-0.14085c-6.61119,-0.2638 -13.17698,-0.82735 -19.71216,-1.80893c-11.15244,0.08178 -22.85284,1.07516 -33.8967,-0.00526c-1.23403,0 -2.46806,0 -3.70209,0c-2.11267,-0.0419 -4.17285,0.67208 -6.2669,0.95505c-1.9067,0.25765 -3.87943,-0.37901 -5.77201,-0.03252c-2.30961,0.42284 -4.61324,1.05134 -6.96109,1.07748c-8.33058,0.09272 -16.66874,0 -25,0c-3.46708,0 -7.63788,-0.65122 -11.03891,-0.07748c-2.07881,0.35069 -3.92422,1.63178 -6,2c-1.99642,0.35414 -4.07646,0.35882 -6,1c-4.32112,0.08452 -8.6393,0.07748 -12.96109,0.07748c-1.67983,0 -3.38654,-0.37999 -5.03891,-0.07748c-1.03686,0.18983 -1.95831,0.83876 -3,1c-3.12876,0.48429 -6.78382,0.07748 -9.96109,0.07748c-3.17728,0 -6.83234,0.40681 -9.96109,-0.07748c-0.64847,-0.10037 -1.28945,-0.20615 -1.92511,-0.31434c-1.53319,0.12514 -3.0869,0.25563 -4.68847,0.37673c-2.81346,0.21273 -5.68888,-0.57049 -8.46424,-0.06238c-0.6093,0.11155 -1.17657,0.39817 -1.75347,0.63859c-2.66968,1.99542 -5.53713,3.74652 -8.47934,5.27371c-2.9392,3.33013 -5.41219,7.33437 -8.48564,10.40781c-1.37167,1.37167 -3.41549,2.0271 -4.60259,3.56129c-2.77135,3.58167 -5.91824,7.00222 -10.34395,8.73934c-1.53167,0.60119 -3.33673,0.28127 -4.84708,0.93416c-1.21909,0.52698 -1.98258,1.78553 -3.10109,2.50165c-2.17407,1.39196 -4.34083,2.86633 -6.74633,3.8032c-0.95097,0.37037 -2.11378,-0.36167 -3.06159,0.01671c-2.49588,0.99639 -4.31372,3.92183 -7,4c-0.52112,0.01516 -1.03384,-0.02425 -1.54001,-0.10624v0.30725h-3c-1.12569,0 -2.17897,-0.31 -3.07914,-0.84929c-0.14054,2.31345 -0.38442,4.77933 0.00167,6.88819c0.18983,1.03686 0.83876,1.95831 1,3c0.61862,3.99664 -0.57256,8.25755 0.03252,12.22799c0.56509,3.70806 1.49797,7.2848 2,11c0.52419,3.87925 -0.73225,8.17982 0,12c0.48649,2.53801 1.2795,5.00755 1.91924,7.51132c0.93272,5.67673 1.11997,11.46894 1.12571,17.22178c0.004,4.01305 -0.77305,8.0866 -0.07748,12.03891c0.4338,2.4649 1.71462,4.74549 2.03252,7.22799c0.55831,4.35982 0.04495,9.34313 0.04495,13.7331c0,7.71707 0.87304,16.06108 -0.04495,23.7331c-0.16328,1.36463 -0.8591,2.63287 -1,4c-0.59397,5.76333 0.39914,11.81453 0.03577,17.5987c-0.4623,7.35886 -0.79331,8.24746 -2.0092,14.19887c4.17472,11.24409 4.01838,22.6315 4.01838,34.46933c0,8.66667 0,17.33333 0,26c0,2.91107 0.34487,5.84825 -0.04495,8.7331c-0.18404,1.36199 -0.79294,2.64132 -1,4c-0.78775,5.16914 0.56036,10.78057 0,16c-0.14671,1.36652 -0.82091,2.63735 -1,4c-0.46967,3.57371 0.04495,7.65952 0.04495,11.2669c0,2.72267 -0.48711,5.47915 -0.05799,8.16779c0.38247,2.39637 1.54706,4.61594 2,7c0.56636,2.98103 0.05799,6.77915 0.05799,9.83221c0,7.23382 -0.17105,14.32193 -1.02044,21.49488c-0.65043,5.49272 -2.12626,11.15038 -4.58966,16.14123c-1.84052,3.72889 -3.71785,7.06615 -4.46737,11.32498c-0.49209,2.7961 0.07748,6.1741 0.07748,9.03891c-0.0419,2.11267 0.69427,4.16997 0.95505,6.2669c0.61393,4.93667 0.48306,10.05997 1,15c0.38348,3.66461 2.34852,7.17305 2.96748,10.77201c0.25528,1.48435 0.44745,2.97863 0.60172,4.47965c3.8433,1.3028 6.75464,2.51564 10.27969,4.84139zM-36.7961,413.04328c-4.86663,-2.0261 -6.93379,-1.71561 -11.64345,-4.31269c-2.88623,-1.59158 -8.74296,-5.47967 -11.18374,-7.87187c-1.33031,-1.30382 -2.21384,-2.99914 -3.40943,-4.42751c-1.54837,-1.84983 -3.56003,-3.27655 -5.10733,-5.12728c-0.68081,-0.81432 -0.96671,-1.93152 -1.71867,-2.68064c-3.81705,-3.80266 -8.63154,-6.66957 -12.44521,-10.48324c-0.55739,-0.38033 -1.1125,-0.69945 -1.67163,-0.97745c0.10687,1.10465 0.2325,2.20792 0.38669,3.30856c0.84022,5.99757 3.70484,11.32577 4.06842,17.53395c0.02263,0.38634 0.02044,12.63307 0.02044,16.49488c0,0 0,1.81259 -0.99626,3.44524c0.02408,1.4942 0.15418,2.99491 0.08499,4.48338c0.88362,-0.03278 1.77089,-0.0017 2.64437,0.11633c2.09405,0.28296 4.15389,0.97308 6.2669,0.95505c8.66553,-0.07396 17.33407,0 26,0c9.25572,0 18.51144,0 27.76715,0c-5.77493,-4.39088 -12.15505,-7.58066 -19.06326,-10.45672zM564.30393,371.14005c-2.8768,2.38087 -5.00638,5.75479 -8,8c-1.76699,1.32524 -3.887,2.16201 -5.56129,3.60259c-1.61792,1.39208 -2.49784,3.48373 -4,5c-8.1653,8.24198 -14.84911,18.0026 -23.11007,26.10729c-0.61699,0.60531 -1.26345,1.17292 -1.93476,1.70668c6.26637,-0.10331 12.53507,-0.05661 18.80219,-0.05661c4.00993,0 7.34628,-0.40936 11.2669,-0.95505c0.7783,-0.10833 1.6003,0.33589 2.35458,0.11555c1.12689,-0.32918 1.99835,-1.25319 3.08242,-1.70378c3.97041,-1.65029 8.03394,-2.24318 12.2961,-1.92322c0,-0.8445 0,-1.689 0,-2.5335c0,-3.77504 -0.33302,-7.86372 0.0292,-11.59123c0.2409,-2.47903 1.00099,-4.91825 0.9708,-7.40877c0,-7.64776 -0.67934,-15.82565 -0.13789,-23.5303c-1.95515,1.78299 -3.91231,3.39441 -6.05818,5.17036zM532.85872,-60.62329c1.80527,1.79846 4.08205,3.07878 5.88392,4.88065c0.67413,0.67413 1.30986,1.38412 1.92809,2.11045c4.47889,2.21657 9.34844,4.63703 13.33753,7.26473c0.67154,0.44236 0.95658,1.34982 1.64612,1.76355c1.02171,0.61303 2.44927,0.46096 3.35388,1.23645c2.56361,2.19773 3.96877,5.47056 6.13179,8.06352c0.98494,1.18071 2.33186,2.0458 3.2274,3.29567c0.14175,0.19783 0.26668,0.4059 0.3804,0.62077c0.05615,-4.96163 0.03716,-9.9166 -0.24152,-14.83674c-0.22108,-3.90324 -1.55476,-7.68305 -2.29926,-11.52371c-5.4281,1.62518 -9.64717,-1.06646 -14.66817,-1.82954c-2.98056,-0.45298 -6.00371,-0.99991 -9.03891,-0.92252c-2.65712,0 -5.27766,-0.01755 -7.88272,-0.0692c0.1954,-0.85766 0.1747,-1.74567 -0.12113,-2.65334c-0.00239,-0.00732 -0.00478,-0.01464 -0.00717,-0.02196c-1.49632,0.74451 -2.98898,0.74451 -2.98898,0.74451c-0.08067,0 -0.16134,0 -0.24201,0c0.50595,0.65991 1.02554,1.30368 1.60073,1.87671zM-88.74264,-33.74264c2.09987,-1.94553 4.66324,-3.44885 7.34527,-4.44946c1.30643,-0.30866 2.23674,-1.48682 3.3891,-2.17535c3.23101,-1.93052 6.76806,-3.41789 9.70433,-5.7726c1.87237,-1.50153 3.60102,-3.21328 5.64955,-4.46385c1.01873,-0.62191 2.32437,-0.63479 3.36975,-1.21077c2.03463,-1.12103 3.35084,-3.25327 5.27638,-4.55278c1.23564,-0.83391 2.74498,-1.19555 4,-2c0.83006,-0.53206 1.54671,-1.25162 2.23111,-2.03027c-0.45098,-0.03462 -0.90134,-0.07908 -1.35094,-0.13524c-6.13232,-0.76609 -12.17918,-2.1118 -18.28943,-3.0376c-4.88863,-0.74071 -7.91562,-1.77752 -13.12138,-1.00691c-2.35688,0.34889 -4.59513,1.29506 -6.80671,2.18138c-0.62013,0.24853 -1.39639,0.55956 -1.61111,1.1922c-0.25011,0.73692 0.4884,1.51931 0.42752,2.29513c-0.13297,1.69446 -0.77917,3.31473 -1,5c-0.34999,2.67095 0.0292,5.71357 0.0292,8.40877c0,4.17157 0,8.34315 0,12.51472zM223.5,-77.5h1c0,0 3.78877,0 5.34485,3.01073c0.22286,-0.00683 0.44154,-0.01073 0.65515,-0.01073c5,0 10,0 15,0c4.3865,0 9.74871,0.86293 14.03891,0.07748c1.03686,-0.18983 1.95831,-0.83876 3,-1c3.25839,-0.50435 6.92918,-0.09794 10.22799,-0.03252c8.49701,-2.12425 17.98702,-1.04495 26.7331,-1.04495c13.98238,0 27.98142,-0.19595 41.96109,0.07748c6.44938,2.14979 14.25982,0.84708 21.03891,0.92252c2.34785,0.02613 4.65149,0.65463 6.96109,1.07748c3.36017,0.61518 7.60325,-0.07748 11.03891,-0.07748c8.33333,0 16.66667,0 25,0c23.33333,0 46.66667,0 70,0c18.66667,0 37.33333,0 56,0c0,0 3.04107,0 4.79315,2.16503c2.0978,-0.08015 4.18103,-0.16503 6.20685,-0.16503c3.70118,0.0578 7.37247,0.44089 10.96109,1.07748c3.13508,0.55613 4.97033,1.75518 8.03891,1.92252c0.42846,0.02337 0.86471,0.42131 1.2613,0.25745c0.82288,-0.34 1.23918,-1.42995 2.1026,-1.64734c2.70767,-0.68173 5.79012,-2.15947 8.31939,-0.97667c4.47207,2.09133 6.46613,17.50315 6.76232,19.19452c1.03562,5.91387 0.5544,12.18886 0.5544,18.17205c0,7.33786 0.20104,14.70932 -0.07748,22.03891c1.40925,4.22774 1.27326,8.66427 2,13c0.17425,1.03959 0.83876,1.95831 1,3c0.83671,5.40558 0.07748,11.48304 0.07748,16.96109c0,15.66667 0,31.33333 0,47c0,7.34022 0.69514,15.13106 -0.01509,22.42533c-0.37422,3.84335 -0.52332,7.71205 -1.06238,11.53576c-0.14715,1.04377 -0.86302,1.95485 -1,3c-0.53901,4.11265 0.07748,8.86662 0.07748,13.03891c0,10.66667 0,21.33333 0,32c0,14.66667 0,29.33333 0,44c0,6.44866 -1.01689,13.88918 -0.04495,20.2669c0.91392,5.99706 1.96218,11.9199 2,18c2.20966,8.83862 1.04495,18.62245 1.04495,27.7331c0,8.66667 0,17.33333 0,26c0,5.10508 0.44769,10.67299 -0.04495,15.7331c-0.13318,1.3679 -0.79294,2.64132 -1,4c-0.39289,2.5781 0.04495,5.65634 0.04495,8.2669c0,10.33333 0,20.66667 0,31c0,5.84167 0.61783,12.17844 -0.07748,17.96109c-0.12584,1.04655 -0.87982,1.95278 -1,3c-0.88266,7.69154 0.07748,16.28176 0.07748,24.03891c-0.02345,2.88412 -0.73318,5.72224 -1.0292,8.59123c-0.54283,5.26101 1.11628,11.23132 0.0292,16.40877c-0.6309,3.00478 -0.20476,6.81892 -2.49174,8.86745c-1.85462,1.66125 -4.97952,0.04625 -7.46936,0.05507c-2.69259,0.00954 -5.39066,-0.17121 -8.07781,0c-2.39512,0.1526 -4.27248,2.26633 -6.58258,2.91697c-1.17022,0.32959 -2.44241,-0.05998 -3.64542,0.11555c-1.35997,0.19843 -2.63348,0.85329 -4,1c-8.66209,0.92997 -18.04307,0.29917 -26.77201,-0.03252c-4.55578,1.51859 -9.19325,1.07748 -13.96109,1.07748c-4.66667,0 -9.33333,0 -14,0c-4.11989,0 -9.16324,-0.67033 -13.2669,-0.04495c-2.57144,0.39187 -5.13202,1.02983 -7.7331,1.04495c-5.17967,0.03011 -11.14075,-0.82616 -16.2669,-0.04495c-2.57144,0.39187 -5.13216,1.01363 -7.7331,1.04495c-4.01832,0 -6.34947,0.48631 -10.2669,0.95505c-2.24137,0.26819 -4.55002,-0.43058 -6.77201,-0.03252c-2.82727,0.5065 -5.52008,1.68951 -8.36987,2.04828c-5.03848,0.6343 -10.51668,0.0292 -15.59123,0.0292c-4.44299,0 -9.3405,0.51755 -13.7331,-0.04495c-2.4825,-0.3179 -4.7631,-1.59872 -7.22799,-2.03252c-4.39416,-0.77334 -9.57599,0.07748 -14.03891,0.07748c-5.16617,0 -10.85465,0.61364 -15.96109,-0.07748c-1.04457,-0.14137 -1.95697,-0.8477 -3,-1c-1.45728,-0.21278 -2.99031,0.2807 -4.41742,-0.08303c-3.89983,-0.99396 -7.93884,-3.74902 -11.70316,-5.21218c-4.6261,-1.79813 -10.56858,-2.11156 -15.50955,-2.65651c-2.71851,-0.29983 -5.43809,-0.60371 -8.14187,-1.01575c-7.0739,-1.07803 -14.28297,1.28249 -21.22799,-1.03252c-2.02759,0 -4.00196,-0.65512 -6,-1c-6.49353,-1.12085 -13.42203,-0.92252 -20.03891,-0.92252c-2.34644,0 -4.70741,-0.34189 -7.03891,-0.07748c-1.85286,0.21013 -3.49096,1.32458 -5.28357,1.8382c-4.22791,1.21138 -8.71652,2.71216 -13.0863,3.21008c-9.62645,1.09691 -19.88502,0.0292 -29.59123,0.0292c-10.40918,-0.03582 -20.10757,2.73944 -30.2669,3.95505c-4.41658,0.52846 -9.27263,0.04495 -13.7331,0.04495c-3.12906,0 -6.64002,0.37301 -9.7331,-0.04495c-1.36199,-0.18404 -2.63735,-0.82091 -4,-1c-7.10815,-0.93418 -15.04917,0.07959 -22.22799,-0.03252c-1.80566,-0.60189 -3.74218,-0.71024 -5.63013,-0.95172c-7.85952,-1.00529 -11.01727,-2.83756 -19.81755,-2c-4.70401,0.4477 -9.18105,2.31108 -13.85813,2.98425c-4.84643,0.69754 -9.77164,1.06149 -14.65141,1.94665c-3.13925,0.56943 -6.17435,1.73185 -9.34859,2.05335c-5.28501,0.53529 -10.88212,-0.67345 -16.14187,0.01575c-6.72061,0.88063 -13.39041,0.8911 -20.09634,2.00876c-3.888,-0.03451 -6.9171,1.43932 -10.76178,1.97549c-3.28168,0.45766 -6.7322,-0.42947 -10,0c-1.36265,0.17909 -2.63801,0.81596 -4,1c-5.32349,0.71935 -11.39875,0.04495 -16.7331,0.04495c-12.33333,0 -24.66667,0 -37,0c-11.27073,0 -22.65176,0.64379 -33.7331,-1.04495c-6.02979,-0.91891 -8.93561,1.50293 -12.81018,-5.65894c-1.25012,-2.31077 -0.45672,-8.48366 -0.45672,-11.2961v-1c0,0 0,-1.82561 1.00701,-3.46279c0.04262,-4.68186 0.25701,-9.36783 0.01343,-14.04232c-0.30107,-5.77777 -3.11447,-10.83567 -3.93158,-16.46605c-1.0216,-7.03942 -0.90813,-14.14485 -2.01139,-21.06774c-0.59669,-3.7442 -2.58586,-7.38845 -3.03252,-11.22799c-0.5731,-4.9264 -0.38158,-10.07934 -1,-15c-0.32435,-2.58082 -1.01363,-5.13216 -1.04495,-7.7331c0,-3.52703 -0.48389,-7.48336 0.07748,-10.96109c0.42566,-2.63704 1.39919,-5.15643 2.1618,-7.71643c0.73583,-2.47007 2.20395,-4.66052 3.37083,-6.95858c1.81299,-3.5705 3.00658,-7.88388 3.41034,-11.85877c0.6995,-6.8864 0.97956,-13.57171 0.97956,-20.50512c0,-2.46349 0.56766,-5.76177 0.05799,-8.16779c-0.50289,-2.37402 -1.64288,-4.59972 -2,-7c-0.06648,-0.44684 -0.05799,-7.79748 -0.05799,-9.83221c0,-4.12433 -0.44431,-8.64411 0.04495,-12.7331c0.16328,-1.36463 0.84227,-2.63471 1,-4c0.6069,-5.2533 -0.71033,-10.74328 0,-16c0.18404,-1.36199 0.79294,-2.64132 1,-4c0.36494,-2.3947 -0.04495,-4.84455 -0.04495,-7.2669c0,-6.33333 0,-12.66667 0,-19c0,-10.03403 0.38128,-20.01879 -0.91571,-29.9978c-0.4713,-3.62617 -1.98921,-7.03831 -3.06591,-10.53287c0.60831,-4.27226 1.73261,-11.64649 1.9908,-15.80113c0.37834,-6.08818 -0.55577,-12.32535 0.03577,-18.4013c0.13318,-1.3679 0.82091,-2.63735 1,-4c0.93598,-7.12184 -0.04495,-15.08737 -0.04495,-22.2669c0,-3.90848 0.51352,-8.37255 0.04495,-12.2669c-0.40574,-3.3722 -1.39195,-3.20654 -1.96748,-6.77201c-1.52502,-9.44771 0.66541,-19.20847 -0.95176,-28.73932c-0.69359,-2.82956 -1.58154,-5.61844 -2.08076,-8.48868c-0.67835,-3.90017 0.59319,-8.10756 0,-12c-0.56509,-3.70806 -1.49797,-7.2848 -2,-11c-0.51435,-3.80639 0.71815,-8.02705 0.03252,-11.77201c-0.18983,-1.03686 -0.83876,-1.95831 -1,-3c-0.54063,-3.49278 -0.07748,-7.42317 -0.07748,-10.96109c0,-7 0,-14 0,-21c0,-5.08096 0.35877,-9.56372 1.0292,-14.59123c0.25207,-1.89022 -0.48473,-4.03028 0.42752,-5.70487c1.48875,-2.73286 3.72549,-5.19808 6.38889,-6.8078c0.45882,-0.2773 0.92106,-0.53836 1.38652,-0.78388c1.10376,-4.11222 5.76786,-4.11222 5.76786,-4.11222l0.54479,0.17914c8.53024,-2.04885 17.70682,-1.17914 26.45521,-1.17914c14.66667,0 29.33333,0 44,0c3.29261,0 7.02189,0.41984 10.2669,0.04495c1.36529,-0.15773 2.63348,-0.85329 4,-1c3.31429,-0.35582 6.68869,0.38254 10,0c3.69386,-0.42674 7.31282,-1.50176 11,-2c5.08731,-0.68744 10.58063,-0.04495 15.7331,-0.04495c9.33333,0 18.66667,0 28,0c7,0 14,0 21,0c3.48207,0 7.2873,-0.42995 10.7331,0.04495c4.25494,0.58642 4.55648,1.51943 8.57542,1.95505c4.23049,0 8.46099,0 12.69148,0c3,0 6,0 9,0c3.99845,0 8.39689,-0.47703 12.38013,0c0.20662,0 0.41325,0 0.61987,0c3.44118,0 7.55434,-0.44984 10.96109,0.07748c2.82658,0.43751 5.57445,1.20801 8.41673,1.73703c2.28886,0.09833 4.58685,0.15817 6.89894,0.17808c1.03454,-0.06202 2.06451,-0.09287 3.07211,0.00742c18.55038,0 37.10075,0 55.65113,0z"/><path d="M157.27126,-47.71165c0.23751,-0.13583 0.47448,-0.27257 0.71094,-0.41014c1.74831,0.39125 3.2927,0.73036 4.53566,0.99359c-1.91728,-0.03748 -3.83135,-0.11832 -5.74095,-0.30669c0.16555,-0.09076 0.33035,-0.18297 0.49435,-0.27676z"/></g></g></svg>