<svg version="1.1" xmlns="http://www.w3.org/2000/svg" xmlns:xlink="http://www.w3.org/1999/xlink" width="67.31158" height="72.75" viewBox="0,0,67.31158,72.75"><g transform="translate(-202.93868,-154.5)"><g data-paper-data="{&quot;isPaintingLayer&quot;:true}" fill-rule="nonzero" stroke="none" stroke-width="0.5" stroke-linecap="butt" stroke-linejoin="miter" stroke-miterlimit="10" stroke-dasharray="" stroke-dashoffset="0" style="mix-blend-mode: normal"><path d="" fill="#347c32"/><path d="" fill="#347c32"/><path d="M263.58324,167.1895c-0.01358,0.00906 -0.02717,0.01812 -0.04075,0.02718c-0.04256,0.04111 -0.08556,0.08188 -0.12899,0.12232c0.0589,0.01617 0.11692,0.03444 0.17399,0.05473c-0.00272,-0.06771 -0.00413,-0.1358 -0.00425,-0.20422zM254.90717,172.31332c-0.96981,0.58399 -1.84431,1.46164 -2.95693,1.67055c-0.22446,0.04215 -0.57559,0.03287 -0.9946,0.00235c-0.06588,0.00601 -0.13437,0.01063 -0.20564,0.01379c-1.08492,-0.0263 -2.87024,0.3522 -4.54246,0.87473c-0.17067,0.47299 -0.28184,0.9851 -0.63854,1.31958c-0.3624,0.33982 -0.80008,0.50089 -1.25523,0.61084c-0.19419,0.19497 -0.40103,0.38074 -0.62523,0.55328c-0.32903,0.25322 -0.82784,0.37928 -1.2247,0.62231c-0.0741,0.22941 -0.25571,0.41049 -0.48544,0.48385c-0.01257,0.02339 -0.02441,0.04752 -0.03548,0.07243c-0.13531,0.30463 0.15338,0.70405 0,1c-0.03725,0.07188 -0.0796,0.14002 -0.12616,0.20506c0.34976,0.35193 0.10406,0.84333 0.10406,0.84333c-0.26675,0.50636 -0.43469,1.09244 -0.42082,1.66459l-0.5,0.3c0,0.68707 0,1.42327 0,1.7c0,0 0,0.67939 -0.50087,1.03644c-0.01261,0.2635 -0.16118,0.49135 -0.3771,0.61494c0.55214,1.27504 0.95426,2.62463 1.1158,4.10228c0.11767,1.07638 0.1272,1.8507 0.04385,2.5228c4.20636,-2.89821 10.47575,-2.33267 13.46831,-6.77645c2.15122,-2.8097 4.07914,-6.94338 4,-10.5v-2.5c0,-0.81786 0.39273,-1.54399 0.99989,-2.0001c0.14224,-0.18935 0.31074,-0.35785 0.50011,-0.50008v-0.44244c-0.34857,0.29958 -0.83549,0.3425 -1.31711,0.40645c-0.56984,0.28832 -1.14339,0.56906 -1.70684,0.85126c-0.40067,0.37938 -0.78668,0.77881 -1.30373,0.91485c-0.15298,0.04025 -0.31321,0.03923 -0.47619,0.01985c-0.18288,0.10302 -0.36273,0.2074 -0.53896,0.31352zM241.09284,175.18669c0.20957,-0.13136 0.44963,-0.20659 0.70233,-0.25688c0.56692,-0.23313 1.14687,-0.42571 1.68357,-0.63271l0.43586,-0.21792c0,0 0.09098,-0.04549 0.22269,-0.06946c0.12998,-0.24278 0.20918,-0.52172 0.29695,-0.7934c-0.48114,0.36437 -0.82922,1.00593 -1.39722,1.22659c-0.41715,0.16206 -0.83449,0.19409 -1.24688,0.15157c-0.75284,0.63342 -1.55812,1.2457 -2.5098,1.68585c-0.02045,0.04372 -0.0404,0.08756 -0.05988,0.13151c0.09698,0.01618 0.18841,0.04646 0.27274,0.09271c0.07412,-0.11072 0.14981,-0.2064 0.22648,-0.28488c0.3099,-0.31718 0.66562,-0.5752 1.04621,-0.79453c0.11507,-0.0942 0.22469,-0.17435 0.32695,-0.23845zM264.55503,161.88206c0.15708,-0.51078 0.63267,-0.88206 1.19497,-0.88206c0.02074,0 0.04136,0.00051 0.06185,0.00151c0.01821,-0.0446 0.0363,-0.08973 0.05426,-0.13539l0.56066,-0.08579l-0.07206,-0.21618l1.47232,-0.49077c0.1321,-0.04749 0.27451,-0.07337 0.42296,-0.07337c0.69036,0 1.25,0.55964 1.25,1.25c0,0.14846 -0.02588,0.29086 -0.07337,0.42297l-0.49077,1.47232l-0.00193,-0.00064c-0.14435,1.77204 -0.3039,3.5248 -0.3895,5.29238c1.01381,1.44361 1.14594,3.93679 1.09504,6.17587c0.38036,0.4386 0.61054,1.01098 0.61054,1.6371v2.5c0,4.38727 0.09314,10.78254 -3.23224,14.26776c-0.26526,0.27802 -0.60193,0.45152 -0.96558,0.58746c-0.83216,1.64129 -1.87056,3.25205 -3.03442,3.91254c-0.10393,0.05898 -0.20911,0.11512 -0.31543,0.16868l0.04767,0.06356l-1.9798,1.48485c-0.42124,0.32311 -0.94829,0.51515 -1.5202,0.51515c-0.29611,0 -0.5802,-0.05148 -0.8438,-0.14598c-2.03611,0.90391 -4.29111,1.31189 -6.54984,1.49576c-0.40993,0.05826 -0.82426,0.10445 -1.24154,0.14069c-1.18531,0.27589 -3.10996,0.34467 -4.98027,0.09338c-1.0397,0.13268 -2.10146,0.35882 -3.06839,0.18322c0.05369,1.15429 0.18384,2.30386 0.18384,3.23293c0,6.66666 0,13.33334 0,20c0,0 0,2.5 -2.5,2.5c-2.5,0 -2.5,-2.5 -2.5,-2.5c0,-6.66666 0,-13.33334 0,-20c0,-1.24908 -0.12085,-2.67839 -0.13411,-4.10793c-0.13545,-0.11709 -0.2582,-0.24847 -0.36589,-0.39182c-0.45612,0.60709 -1.1822,0.99975 -2,0.99975h-2.5v-0.07689c-0.08163,0.02294 -0.16374,0.04454 -0.24634,0.06472c-0.90535,0.22111 -1.82967,-0.35569 -2.74394,-0.53638c-0.607,-0.11997 -5.20879,-1.02621 -5.53014,-1.16918c-3.19931,-1.42348 -6.14409,-4.60241 -8.36821,-7.14426c-1.77528,-2.0289 -4.01555,-3.49381 -5.87913,-5.37024c-5.91359,-5.95437 -9.7484,-18.01184 -4.70856,-25.29882c1.32618,-1.63912 2.79857,-3.19199 4.47633,-4.46894l3.61803,0.26393c0,0 1.26789,0.63395 1.41684,1.90184c1.01034,0.8887 2.12939,1.85901 2.68994,2.15483c7.86257,4.14934 13.386,9.83872 18.34981,17.28444c0.03119,0.04679 0.06243,0.09354 0.0937,0.14023c0.0264,-0.14384 0.05983,-0.28254 0.10117,-0.41517c0.11073,-0.35522 0.72854,-1.03346 1.44938,-1.54002c0.2057,-0.59689 0.43381,-1.20509 0.7508,-1.8204c0.53175,-0.28222 1.01937,-0.6117 1.4806,-0.95947c-0.12428,-0.13385 -0.20027,-0.31315 -0.20027,-0.5102c0,-0.2994 0.17544,-0.55783 0.42912,-0.67809l0.98547,-0.49273c1.20569,-0.60285 1.96967,-1.05581 3.33541,-1.07918c0.43228,0.07994 0.66424,-0.54981 1.02249,-0.83088c1.31992,-1.22978 3.91242,-1.22465 5.08321,-2.05711c0.58664,-0.41711 1.13907,-0.97303 1.84233,-1.1265c0.97994,-0.21385 3.21787,-0.76759 4.86612,-0.59324c1.11244,-0.61973 2.22299,-1.24851 3.35044,-1.81309c1.00167,-0.5016 2.03791,-1.32691 3.1169,-1.69888c0.03974,-0.17134 0.06709,-0.34611 0.08052,-0.5246l0.39321,-0.09526l-0.09063,-0.18126l0.48968,-0.24484zM254.54214,168.24445c-1.10375,-0.02655 -2.12311,0.09788 -2.89026,0.63879c-0.13251,0.09343 -0.18611,0.2562 -0.22981,0.42714c0.52882,-0.23257 1.07382,-0.49229 1.64598,-0.78797l0.18196,0.05284v-0.07525h0.77176c0.17388,-0.08349 0.34732,-0.16876 0.52038,-0.25555zM213.3882,182.90951c-0.09393,-0.19543 -0.18927,-0.38961 -0.28624,-0.58234c-0.0941,-0.01807 -0.18962,-0.03239 -0.28595,-0.04447c0.1868,0.21107 0.3777,0.41974 0.57219,0.62681zM231.54409,181.0374c-0.69608,-1.02627 -1.42571,-2.03628 -2.18383,-3.0184c0.26298,0.40788 0.54757,0.80933 0.86606,1.19994c0.44456,0.5926 0.88076,1.20361 1.31777,1.81846zM220.25759,173.95472c-0.07446,-0.06416 -0.14913,-0.12815 -0.22401,-0.19196c0.05947,0.07052 0.11808,0.14166 0.17567,0.21351c0.01603,-0.00734 0.03214,-0.01453 0.04834,-0.02155z" fill="#882929"/><path d="M265.63388,164.36612c0.88388,0.88388 0,1.76777 0,1.76777l-0.5,0.5c-2.93775,2.93775 -5.67448,5.59257 -9.22672,7.67943c-2.66464,1.56542 -6.38997,1.39365 -9,3c-1.59571,0.98209 -2.93716,2.12765 -4.44891,3.14494l0.17563,0.17563l-1,1c-0.22621,0.22621 -0.53871,0.36612 -0.88388,0.36612c-0.69036,0 -1.25,-0.55964 -1.25,-1.25c0,-0.14845 0.02588,-0.29086 0.07337,-0.42297l0.49077,-1.47232c0.56159,-1.62136 0.22413,-3.21578 1.12254,-4.76188c2.327,-4.00457 8.08988,-4.64556 12.56331,-3.80234l0,-0.29049h1.5c0.58605,0 1.0779,0.40331 1.21315,0.94752c2.50928,-1.78521 4.61133,-3.78977 6.90296,-6.0814l0.5,-0.5c0,0 0.88388,-0.88388 1.76777,0zM243.89104,174.80568c0.3027,-0.03664 0.59903,-0.09621 0.88061,-0.21053c1.19891,-0.48674 2.23495,-1.14917 3.27599,-1.8017c-0.5898,0.0227 -1.11507,0.06845 -1.51045,0.17311c-1.35028,0.35742 -2.13879,1.01317 -2.64616,1.83912z" fill="#882929"/><path d="M206.75,165.5c1.25,0 1.25,1.25 1.25,1.25v1.5c0,3.12561 -0.95607,8.29229 0.14869,11.4082c0.21101,-0.39186 0.62506,-0.6582 1.10131,-0.6582c0.5623,0 1.03788,0.37128 1.19497,0.88206l0.49089,1.47266c0.07092,0.23262 0.17932,0.44795 0.30725,0.65442c0.2276,-0.3088 0.59385,-0.50914 1.00689,-0.50914c0.15379,0 0.3011,0.02777 0.43718,0.07858c-0.32527,-0.49984 -0.62921,-1.03228 -1.00049,-1.67142c-0.87383,-1.50425 -2.49991,-1.92387 -3.13305,-3.79493c-1.01746,-3.0068 -0.07218,-8.14539 -0.05363,-11.36223c0.00915,-1.58721 -1.17259,-3.71626 -0.26405,-5.23089c0.23199,-0.38675 0.82692,-0.32103 1.27832,-0.45858c0.02123,-0.13961 0.06555,-0.27163 0.12895,-0.39204l0.94903,-1.89805l0.46279,-1.38838c0.15709,-0.51078 0.63267,-0.88206 1.19497,-0.88206c0.69036,0 1.25,0.55964 1.25,1.25v1.5l-0.43238,0l-0.0136,0.04079c0.01626,0.32316 0.00118,0.63743 -0.05402,0.94777c0,0.5 0,2.01143 0,2.51143c0,0 0,1.25 -1.25,1.25c-1.0147,0 -1.20571,-0.82369 -1.24166,-1.13379c-0.08969,0.02235 -0.17269,0.05766 -0.24429,0.11468c-0.57117,0.45488 0.60354,1.34802 0.71981,2.06888c0.02089,0.12951 0.01614,2.96022 0.01614,3.20023c0,2.55582 -0.82288,6.76835 -0.05363,9.13777c0.43683,1.34554 2.1616,2.05987 2.86695,3.20507c0.90511,1.46954 1.0403,1.99301 2.32057,3.27328c1.35689,1.35689 2.5026,2.57656 3.63654,4.16192c0.09629,0.13462 0.23159,0.34869 0.39286,0.60305c0.77447,-0.46109 1.4706,0.23504 1.4706,0.23504c0.82709,0.82709 1.4345,1.42623 1.93119,2.18046c0.05571,0.00975 0.11024,0.02537 0.16328,0.04857c1.09085,0.47717 1.83613,2.01526 3.02165,1.90485h1.5c0,0 1.25,0 1.25,1.25c0,1.25 -1.25,1.25 -1.25,1.25h-1.5c-0.64698,-0.03112 -1.33944,0.14513 -1.94353,-0.08159c-0.22162,0.34956 -0.61195,0.58159 -1.05647,0.58159c-0.14845,0 -0.29086,-0.02588 -0.42297,-0.07337l-1.47232,-0.49077l0.10805,-0.32415c-0.42487,-0.14291 -0.82861,-0.31087 -1.2147,-0.50085c0.51668,0.64306 0.93603,1.35924 0.68427,2.04482c-0.05876,0.16003 -0.11839,0.30799 -0.17879,0.44456l1.36439,0.4548c0.51078,0.15709 0.88206,0.63267 0.88206,1.19497c0,0.69036 -0.55964,1.25 -1.25,1.25h-1.5v-0.23731l-0.47835,0.14216c-0.25035,-0.22639 -0.5034,-0.4459 -0.75853,-0.65991c-0.94179,-0.1717 -1.92886,-1.20282 -2.74129,-2.11202c-1.694,-1.2412 -3.38454,-2.45194 -4.90571,-3.99903c-0.78438,-0.79774 -2.22866,-1.98052 -1.86612,-3.38388c0.0319,-0.12349 0.07342,-0.24251 0.1229,-0.35781c-0.00445,-0.00745 -0.0089,-0.01489 -0.01334,-0.02234l-0.04541,-0.01514l0.01306,-0.03919c-0.07073,-0.11908 -0.14062,-0.2385 -0.21022,-0.35865c-0.42485,-0.53053 -0.74602,-1.10463 -0.97696,-1.70635c-0.07697,-0.13184 -0.15614,-0.2661 -0.23806,-0.40317c-1.14172,-1.91037 -2.72735,-3.05795 -3.13583,-5.39713c-0.60969,-3.49135 -0.01614,-7.65277 -0.01614,-11.20023v-1.5c0,0 0,-1.25 1.25,-1.25zM218.71752,191.31263c-1.86991,-1.48049 -3.38908,-3.47787 -5.18216,-5.44836c0.03323,0.21472 0.10537,0.44383 0.25359,0.68918c0.20701,0.15572 0.39368,0.3272 0.52436,0.53938c0.13745,0.22317 0.27147,0.45185 0.4035,0.68454c1.09836,1.28731 2.71155,2.83621 3.69035,3.40931c0.09542,0.05587 0.2004,0.09537 0.31035,0.12595z" fill="#882929"/><path d="M218.44015,191.22426c-0.9788,-0.5731 -2.66831,-2.18451 -3.76667,-3.47182c-0.13203,-0.23269 -0.26128,-0.46826 -0.39873,-0.69142c-0.13068,-0.21218 -0.31649,-0.38468 -0.5235,-0.5404c-0.14822,-0.24535 -0.21711,-0.47786 -0.25034,-0.69257c1.79308,1.97049 3.31225,3.96787 5.18216,5.44836c-0.10995,-0.03057 -0.14749,0.00373 -0.24291,-0.05214z" data-paper-data="{&quot;noHover&quot;:false,&quot;origItem&quot;:[&quot;Path&quot;,{&quot;applyMatrix&quot;:true,&quot;segments&quot;:[[[218.71752,191.31263],[-0.10995,-0.03057],[-1.86991,-1.48049]],[[213.53536,185.86428],[1.79308,1.97049],[0.03323,0.21472]],[[213.78895,186.55345],[-0.14822,-0.24535],[0.20701,0.15572]],[[214.31331,187.09284],[-0.13068,-0.21218],[0.13745,0.22317]],[[214.71681,187.77738],[-0.13203,-0.23269],[1.09836,1.28731]],[[218.40716,191.18669],[-0.9788,-0.5731],[0.09542,0.05587]]],&quot;closed&quot;:true}]}" fill="#ffffff"/></g></g></svg>