<svg aria-hidden="true" style="position: absolute; width: 0; height: 0; overflow: hidden;" version="1.1" xmlns="http://www.w3.org/2000/svg" xmlns:xlink="http://www.w3.org/1999/xlink">
<defs>
<symbol id="icon-file-add" viewBox="0 0 24 24">
<path d="M8 7v2h6v-2h-6zM8 11h9v-1h-9v1zM17 12h-8v1h8v-1zM17 15v-1h-7v1h7zM8 14h-3v3h-3v3h3v3h3v-3h3v-3h-3v-3zM4 2v10h2v-8h13v17h-6.643l-1 2h9.643v-21h-17z"></path>
</symbol>
<symbol id="icon-home" viewBox="0 0 24 24">
<path d="M21 7.651v-6.651h-5v2.963l-4.018-2.963-11.982 9h3v13h18v-13l3 0.002-3-2.351zM12 21h-4v-8h4v8zM19 21h-6v-9h-6v9h-2v-12l7.009-5 6.991 5v12zM19 5.132l-1-0.667v-1.465h1v2.132zM18 14h-4v4h4v-4zM17 17h-2v-2h2v2zM11 17h-1v1h1v-1z"></path>
</symbol>
<symbol id="icon-heart" viewBox="0 0 32 32">
<path d="M29.193 5.265c-3.629-3.596-9.432-3.671-13.191-0.288-3.76-3.383-9.561-3.308-13.192 0.288-3.741 3.704-3.741 9.709 0 13.415 1.069 1.059 11.053 10.941 11.053 10.941 1.183 1.172 3.096 1.172 4.278 0 0 0 10.932-10.822 11.053-10.941 3.742-3.706 3.742-9.711-0.001-13.415zM27.768 17.268l-11.053 10.941c-0.393 0.391-1.034 0.391-1.425 0l-11.053-10.941c-2.95-2.92-2.95-7.671 0-10.591 2.844-2.815 7.416-2.914 10.409-0.222l1.356 1.22 1.355-1.22c2.994-2.692 7.566-2.594 10.41 0.222 2.95 2.919 2.95 7.67 0.001 10.591zM9.253 7.501c0.277 0 0.5 0.224 0.5 0.5s-0.224 0.5-0.5 0.5h-0.001c-1.794 0-3.249 1.455-3.249 3.249v0.001c0 0.276-0.224 0.5-0.5 0.5s-0.5-0.224-0.5-0.5v0c0-2.346 1.901-4.247 4.246-4.249 0.002 0 0.002-0.001 0.004-0.001z"></path>
</symbol>
<symbol id="icon-trash" viewBox="0 0 32 32">
<path d="M29.98 6.819c-0.096-1.57-1.387-2.816-2.98-2.816h-3v-1.002c0-1.657-1.344-3-3-3h-10c-1.657 0-3 1.343-3 3v1.001h-3c-1.595 0-2.885 1.246-2.981 2.816h-0.019v2.183c0 1.104 0.896 2 2 2v0 17c0 2.209 1.791 4 4 4h16c2.209 0 4-1.791 4-4v-17c1.104 0 2-0.896 2-2v-2.182h-0.020zM10 3.002c0-0.553 0.447-1 1-1h10c0.553 0 1 0.447 1 1v1h-12v-1zM26 28.002c0 1.102-0.898 2-2 2h-16c-1.103 0-2-0.898-2-2v-17h20v17zM28 8.001v1h-24v-1.999c0-0.553 0.447-1 1-1h22c0.553 0 1 0.447 1 1v0.999zM9 28.006h2c0.553 0 1-0.447 1-1v-13c0-0.553-0.447-1-1-1h-2c-0.553 0-1 0.447-1 1v13c0 0.553 0.447 1 1 1zM9 14.005h2v13h-2v-13zM15 28.006h2c0.553 0 1-0.447 1-1v-13c0-0.553-0.447-1-1-1h-2c-0.553 0-1 0.447-1 1v13c0 0.553 0.447 1 1 1zM15 14.005h2v13h-2v-13zM21 28.006h2c0.553 0 1-0.447 1-1v-13c0-0.553-0.447-1-1-1h-2c-0.553 0-1 0.447-1 1v13c0 0.553 0.447 1 1 1zM21 14.005h2v13h-2v-13z"></path>
</symbol>
<symbol id="icon-tag" viewBox="0 0 32 32">
<path d="M31.391 13.883l-5-8c-0.73-1.169-2.012-1.88-3.391-1.88h-19c-2.209 0-4 1.791-4 4v16c0 2.209 1.791 4 4 4h19c1.379 0 2.66-0.711 3.391-1.881l5-8c0.812-1.295 0.812-2.942 0-4.239zM29.695 17.062l-5 8.002c-0.367 0.588-1.002 0.939-1.695 0.939h-19c-1.103 0-2-0.898-2-2v-16c0-1.103 0.897-2 2-2h19c0.693 0 1.328 0.352 1.695 0.939l5 8c0.403 0.645 0.403 1.477 0 2.12zM23 13.003c-1.658 0-3 1.343-3 3s1.342 3 3 3c1.656 0 3-1.344 3-3 0-1.657-1.344-3-3-3zM23 18.004c-1.105 0-2-0.896-2-2s0.895-2 2-2c1.104 0 2 0.896 2 2s-0.896 2-2 2z"></path>
</symbol>
<symbol id="icon-plus" viewBox="0 0 32 32">
<path d="M15.5 29.5c-7.18 0-13-5.82-13-13s5.82-13 13-13 13 5.82 13 13-5.82 13-13 13zM21.938 15.938c0-0.552-0.448-1-1-1h-4v-4c0-0.552-0.447-1-1-1h-1c-0.553 0-1 0.448-1 1v4h-4c-0.553 0-1 0.448-1 1v1c0 0.553 0.447 1 1 1h4v4c0 0.553 0.447 1 1 1h1c0.553 0 1-0.447 1-1v-4h4c0.552 0 1-0.447 1-1v-1z"></path>
</symbol>
<symbol id="icon-plus1" viewBox="0 0 32 32">
<path d="M16 29c-7.18 0-13-5.82-13-13s5.82-13 13-13 13 5.82 13 13-5.82 13-13 13zM16 6c-5.522 0-10 4.477-10 10 0 5.522 4.478 10 10 10 5.523 0 10-4.478 10-10 0-5.523-4.477-10-10-10zM19.988 17h-3v3c0 0.553-0.448 1-1 1-0.553 0-1-0.447-1-1v-3h-3c-0.553 0-1-0.448-1-1s0.447-1 1-1h3v-3c0-0.553 0.447-1 1-1 0.552 0 1 0.447 1 1v3h3c0.552 0 1 0.448 1 1s-0.448 1-1 1z"></path>
</symbol>
<symbol id="icon-minus" viewBox="0 0 32 32">
<path d="M15.5 3.5c-7.18 0-13 5.82-13 13s5.82 13 13 13c7.18 0 13-5.82 13-13s-5.82-13-13-13zM22 16.875c0 0.553-0.448 1-1 1h-11c-0.553 0-1-0.447-1-1v-1c0-0.552 0.447-1 1-1h11c0.552 0 1 0.448 1 1v1z"></path>
</symbol>
<symbol id="icon-minus1" viewBox="0 0 32 32">
<path d="M16 3c-7.18 0-13 5.82-13 13s5.82 13 13 13 13-5.82 13-13-5.82-13-13-13zM16 26c-5.522 0-10-4.478-10-10 0-5.523 4.478-10 10-10 5.523 0 10 4.477 10 10 0 5.522-4.477 10-10 10zM19.738 15h-8c-0.553 0-1 0.448-1 1 0 0.553 0.447 1 1 1h8c0.553 0 1-0.447 1-1 0-0.552-0.447-1-1-1z"></path>
</symbol>
<symbol id="icon-cancel" viewBox="0 0 32 32">
<path d="M19.587 16.001l6.096 6.096c0.396 0.396 0.396 1.039 0 1.435l-2.151 2.151c-0.396 0.396-1.038 0.396-1.435 0l-6.097-6.096-6.097 6.096c-0.396 0.396-1.038 0.396-1.434 0l-2.152-2.151c-0.396-0.396-0.396-1.038 0-1.435l6.097-6.096-6.097-6.097c-0.396-0.396-0.396-1.039 0-1.435l2.153-2.151c0.396-0.396 1.038-0.396 1.434 0l6.096 6.097 6.097-6.097c0.396-0.396 1.038-0.396 1.435 0l2.151 2.152c0.396 0.396 0.396 1.038 0 1.435l-6.096 6.096z"></path>
</symbol>
<symbol id="icon-trashcan" viewBox="0 0 32 32">
<path d="M8 26c0 1.656 1.343 3 3 3h10c1.656 0 3-1.344 3-3l2-16h-20l2 16zM19 13h2v13h-2v-13zM15 13h2v13h-2v-13zM11 13h2v13h-2v-13zM25.5 6h-6.5c0 0-0.448-2-1-2h-4c-0.553 0-1 2-1 2h-6.5c-0.829 0-1.5 0.671-1.5 1.5s0 1.5 0 1.5h22c0 0 0-0.671 0-1.5s-0.672-1.5-1.5-1.5z"></path>
</symbol>
<symbol id="icon-chevron-thin-right" viewBox="0 0 20 20">
<path d="M13.25 10l-7.141-7.42c-0.268-0.27-0.268-0.707 0-0.979 0.268-0.27 0.701-0.27 0.969 0l7.83 7.908c0.268 0.271 0.268 0.709 0 0.979l-7.83 7.908c-0.268 0.271-0.701 0.27-0.969 0s-0.268-0.707 0-0.979l7.141-7.417z"></path>
</symbol>
<symbol id="icon-chat" viewBox="0 0 20 20">
<path d="M5.8 12.2v-6.2h-3.8c-1.1 0-2 0.9-2 2v6c0 1.1 0.9 2 2 2h1v3l3-3h5c1.1 0 2-0.9 2-2v-1.82c-0.064 0.014-0.132 0.021-0.2 0.021l-7-0.001zM18 1h-9c-1.1 0-2 0.9-2 2v8h7l3 3v-3h1c1.1 0 2-0.899 2-2v-6c0-1.1-0.9-2-2-2z"></path>
</symbol>
<symbol id="icon-location-pin" viewBox="0 0 20 20">
<path d="M10 2.009c-2.762 0-5 2.229-5 4.99 0 4.774 5 11 5 11s5-6.227 5-11c0-2.76-2.238-4.99-5-4.99zM10 9.76c-1.492 0-2.7-1.209-2.7-2.7s1.208-2.7 2.7-2.7c1.49 0 2.699 1.209 2.699 2.7s-1.209 2.7-2.699 2.7z"></path>
</symbol>
<symbol id="icon-map" viewBox="0 0 20 20">
<path d="M19.447 3.718l-6-3c-0.281-0.141-0.613-0.141-0.895 0l-5.63 2.815-5.606-1.869c-0.306-0.102-0.64-0.051-0.901 0.138s-0.415 0.49-0.415 0.811v13.001c0 0.379 0.214 0.725 0.553 0.894l6 3c0.141 0.070 0.294 0.106 0.447 0.106s0.307-0.035 0.447-0.106l5.63-2.814 5.606 1.869c0.305 0.1 0.64 0.049 0.901-0.139s0.415-0.49 0.415-0.81v-13.002c0.001-0.379-0.213-0.725-0.552-0.894zM8 5.231l4-2v11.763l-4 2v-11.763zM2 4l4 1.333v11.661l-4-2v-10.994zM18 16.227l-4-1.334v-11.662l4 2v10.996z"></path>
</symbol>
<symbol id="icon-plus2" viewBox="0 0 32 32">
<path d="M31 12h-11v-11c0-0.552-0.448-1-1-1h-6c-0.552 0-1 0.448-1 1v11h-11c-0.552 0-1 0.448-1 1v6c0 0.552 0.448 1 1 1h11v11c0 0.552 0.448 1 1 1h6c0.552 0 1-0.448 1-1v-11h11c0.552 0 1-0.448 1-1v-6c0-0.552-0.448-1-1-1z"></path>
</symbol>
</defs>
</svg>
